<svg xmlns="http://www.w3.org/2000/svg" xmlns:xlink="http://www.w3.org/1999/xlink" version="1.1" x="0px" y="0px"
  viewBox="0 0 100 125" enable-background="new 0 0 100 100" xml:space="preserve">
  <g fill="#ffffff">
    <path
      d="M50.979,19.903c-1.481-0.717-3.241-0.523-4.53,0.498L26.746,35.992H13.101c-2.37,0-4.291,1.92-4.291,4.29v19.436   c0,2.369,1.921,4.289,4.291,4.289h13.645l19.703,15.592c0.773,0.611,1.713,0.927,2.664,0.927c0.635,0,1.273-0.144,1.868-0.429   c1.482-0.717,2.422-2.219,2.422-3.862v-52.47C53.402,22.12,52.461,20.618,50.979,19.903z" />
    <path
      d="M89.932,39.101c-1.676-1.676-4.391-1.676-6.066,0l-4.832,4.832l-4.832-4.832c-1.676-1.676-4.395-1.676-6.068,0   c-1.676,1.676-1.676,4.393,0,6.067L72.965,50l-4.832,4.83c-1.674,1.679-1.674,4.394,0,6.067c0.838,0.84,1.938,1.259,3.033,1.259   c1.1,0,2.197-0.42,3.037-1.259l4.83-4.83l4.83,4.83c0.838,0.839,1.938,1.257,3.033,1.257c1.1,0,2.197-0.418,3.035-1.257   c1.676-1.674,1.676-4.391,0-6.067L85.1,50l4.832-4.831C91.609,43.493,91.609,40.776,89.932,39.101z" />
  </g>
</svg>